<?xml version="1.0" encoding="iso-8859-1"?>
<!-- Generator: Adobe Illustrator 19.1.0, SVG Export Plug-In . SVG Version: 6.00 Build 0)  -->
<!DOCTYPE svg PUBLIC "-//W3C//DTD SVG 1.1 Tiny//EN" "http://www.w3.org/Graphics/SVG/1.1/DTD/svg11-tiny.dtd">
<svg version="1.1" baseProfile="tiny" xmlns="http://www.w3.org/2000/svg" xmlns:xlink="http://www.w3.org/1999/xlink" x="0px"
	 y="0px" viewBox="0 0 16 16" xml:space="preserve">
<g id="Layer_1">
	<path d="M6.987,14.955c2.36,0,4.524-1.167,5.83-3.156c0.151-0.231,0.087-0.541-0.144-0.692c-0.229-0.151-0.54-0.089-0.692,0.144
		c-1.161,1.77-3.119,2.777-5.223,2.7c-1.596-0.058-3.073-0.734-4.16-1.904S0.945,9.354,1.005,7.758
		c0.121-3.293,2.922-5.88,6.193-5.753c1.681,0.062,3.271,0.829,4.363,2.107c0.854,0.999,1.339,2.242,1.415,3.584l-1.532-1.752
		c-0.183-0.21-0.499-0.228-0.705-0.047c-0.208,0.182-0.229,0.497-0.047,0.705l2.386,2.728c0.102,0.117,0.253,0.184,0.408,0.17
		c0.155-0.01,0.298-0.092,0.384-0.222l2.046-3.068c0.153-0.229,0.091-0.54-0.139-0.693c-0.228-0.152-0.539-0.092-0.693,0.139
		l-1.13,1.695c-0.139-1.449-0.695-2.791-1.632-3.888c-1.273-1.49-3.128-2.386-5.087-2.458c-3.812-0.124-7.089,2.87-7.23,6.716
		c-0.068,1.862,0.593,3.641,1.861,5.006s2.993,2.155,4.855,2.224C6.81,14.953,6.899,14.955,6.987,14.955z"/>
</g>
<g id="Layer_2">
</g>
<g id="Layer_3">
</g>
</svg>
