<?xml version="1.0" encoding="utf-8"?><!DOCTYPE svg PUBLIC "-//W3C//DTD SVG 1.1//EN" "http://www.w3.org/Graphics/SVG/1.1/DTD/svg11.dtd"><svg xmlns="http://www.w3.org/2000/svg" xmlns:xlink="http://www.w3.org/1999/xlink"><symbol viewBox="0 0 17 17" id="icon-bookmark"><path d="M10.027 10.074V0H3.973v10.077l3.021-2.053 3.033 2.05zM4.973 8.188V1h4.055v7.191L6.991 6.815 4.973 8.188zM16 1.007V16H1V1.007h1.974v1H2V15h13V2.007h-4.005v-1H16z"/></symbol><symbol viewBox="0 0 17 17" id="icon-close"><path d="M9.207 8.5l6.646 6.646-.707.707L8.5 9.207l-6.646 6.646-.707-.707L7.793 8.5 1.146 1.854l.707-.707L8.5 7.793l6.646-6.646.707.707L9.207 8.5z"/></symbol><symbol viewBox="0 0 17 17" id="icon-plus"><path d="M16 9H9v7H8V9H1V8h7V1h1v7h7v1z"/></symbol><symbol viewBox="0 0 17 17" id="icon-reload"><path d="M6 8H0V2h1v4.109C2.013 2.916 5.036.625 8.5.625c3.506 0 6.621 2.36 7.574 5.739l-.963.271A6.898 6.898 0 0 0 8.5 1.624C5.274 1.625 2.484 3.9 1.792 7H6v1zm5 1v1h4.208c-.693 3.101-3.479 5.375-6.708 5.375a6.895 6.895 0 0 1-6.611-5.011l-.963.271A7.9 7.9 0 0 0 8.5 16.374c3.459 0 6.475-2.28 7.5-5.482V15h1V9h-6z"/></symbol><symbol viewBox="0 0 17 17" id="icon-star"><path d="M16.647 7.017h-6.225L8.5 1.097l-1.923 5.92H.353l5.035 3.658-1.922 5.92L8.5 12.936l5.035 3.659-1.922-5.92 5.034-3.658zm-5.014 6.96L8.5 11.699l-3.133 2.277 1.197-3.685-3.133-2.274h3.873L8.5 4.333l1.196 3.684h3.873l-3.133 2.275 1.197 3.685z"/></symbol><symbol viewBox="0 0 17 17" id="icon-star-solid"><path d="M16.646 7.017h-6.225L8.5 1.097l-1.923 5.92H.353l5.035 3.658-1.922 5.92L8.5 12.936l5.035 3.659-1.922-5.92 5.033-3.658z"/></symbol></svg>