<?xml version="1.0" encoding="utf-8"?>
<!-- Generator: Adobe Illustrator 18.0.0, SVG Export Plug-In . SVG Version: 6.00 Build 0)  -->
<!DOCTYPE svg PUBLIC "-//W3C//DTD SVG 1.1//EN" "http://www.w3.org/Graphics/SVG/1.1/DTD/svg11.dtd">
<svg version="1.1" id="图层_1" xmlns="http://www.w3.org/2000/svg" xmlns:xlink="http://www.w3.org/1999/xlink" x="0px" y="0px"
	 viewBox="0 0 40 40" enable-background="new 0 0 40 40" xml:space="preserve">
<g>
	<g>
		<g>
			<path fill="#231815" d="M26,20c0-3.3-2.7-6-6-6s-6,2.7-6,6s2.7,6,6,6c0.3,0,0.5,0.2,0.5,0.5S20.3,27,20,27c-3.9,0-7-3.1-7-7
				s3.1-7,7-7s7,3.1,7,7H26z"/>
		</g>
		<g>
			<path fill="#231815" d="M26.5,20.5c-0.1,0-0.2,0-0.3-0.1l-3.1-1.9c-0.2-0.1-0.3-0.4-0.2-0.7c0.1-0.2,0.4-0.3,0.7-0.2l2.7,1.6
				l1.6-2.7c0.1-0.2,0.5-0.3,0.7-0.2c0.2,0.1,0.3,0.4,0.2,0.7l-1.9,3.1c-0.1,0.1-0.2,0.2-0.3,0.2C26.6,20.5,26.5,20.5,26.5,20.5z"/>
		</g>
	</g>
</g>
</svg>
